<?xml version="1.0" encoding="UTF-8"?>
<svg width="1200pt" height="1200pt" version="1.1" viewBox="0 0 1200 1200" xmlns="http://www.w3.org/2000/svg">
 <path d="m990 217.2c-216-216-565.2-216-780 0s-216 565.2 0 780 565.2 216 780 0 214.8-564 0-780zm-504 277.2c62.398-62.398 164.4-62.398 226.8 0 62.398 62.398 62.398 164.4 0 226.8-62.398 62.398-164.4 62.398-226.8 0-62.398-62.398-62.398-164.4 0-226.8zm445.2 445.2c-183.6 183.6-480 183.6-663.6 0l165.6-165.6c91.199 91.199 240 91.199 331.2 0 91.199-91.199 91.199-240 0-331.2l166.8-166.8c183.6 183.6 183.6 480 0 663.6z" fill="#eef1f6"/>
</svg>
