<?xml version="1.0" encoding="UTF-8"?>
<svg width="30pt" height="30pt" version="1.1" viewBox="0 0 100 100" xmlns="http://www.w3.org/2000/svg" className="fill-current">
 <path d="m6.4883 43.895 36.562-32.852c3.9727-3.5664 9.9219-3.5664 13.895 0l36.562 32.852c3.0547 2.7461 1.0664 7.8047-2.9922 7.8047h-6.6602v29.535c0 5.7305-4.668 10.395-10.395 10.395l-46.922 0.003906c-5.7305 0-10.395-4.6641-10.395-10.395v-29.539h-6.6602c-4.0703 0-6.043-5.0664-2.9961-7.8047zm40.574-28.398-33.617 30.203h5.6992c1.6562 0 3 1.3438 3 3v32.535c0 2.4141 1.9805 4.3945 4.3945 4.3945h46.922c2.418 0 4.3945-1.9805 4.3945-4.3945v-32.535c0-1.6562 1.3438-3 3-3h5.6992l-33.617-30.203c-1.6758-1.5039-4.1992-1.5039-5.875 0z"/>
</svg>
