<?xml version="1.0" encoding="UTF-8"?>
<svg width="30pt" height="30pt" version="1.1" viewBox="0 0 100 100" xmlns="http://www.w3.org/2000/svg" className="fill-current">
 <path d="m20.629 26.551h11.93v-4.1016c0-15.363 18.727-23.359 29.766-12.32 3.1602 3.1602 5.1211 7.5234 5.1211 12.32v4.1016h11.93c1.6562 0 3 1.3438 3 3v53.797c0 6.418-5.2383 11.656-11.656 11.656h-41.434c-6.418 0-11.656-5.2383-11.656-11.656v-53.797c0-1.6562 1.3438-3 3-3zm17.926 0h22.887c0-4.6953 0.41406-8.4023-3.3633-12.18-7.2656-7.2656-19.523-1.957-19.523 8.0781zm0 9.168h22.887v-3.168h-22.887zm25.891 6h-28.887c-1.6562 0-3-1.3438-3-3v-6.168h-8.9297v50.797c0 3.1055 2.5508 5.6562 5.6562 5.6562h41.43c3.1055 0 5.6562-2.5508 5.6562-5.6562v-50.797h-8.9297v6.168c0 1.6523-1.3398 3-2.9961 3z"/>
</svg>
