<svg version="1.1" id="Layer_1" xmlns="http://www.w3.org/2000/svg" xmlns:xlink="http://www.w3.org/1999/xlink" x="0px" y="0px"
	 width="100%" viewBox="0 0 1080 1080" enable-background="new 0 0 1080 1080" xml:space="preserve">
<path fill="#FFFFFF" opacity="1.000000" stroke="none" 
	d="
M572.000000,1081.000000 
	C381.355286,1081.000000 191.210556,1081.000000 1.032916,1081.000000 
	C1.032916,721.063477 1.032916,361.126984 1.032916,1.095229 
	C360.894958,1.095229 720.789917,1.095229 1080.842529,1.095229 
	C1080.842529,360.999939 1080.842529,720.999939 1080.842529,1081.000000 
	C911.459900,1081.000000 741.979919,1081.000000 572.000000,1081.000000 
M571.914062,809.012268 
	C575.273987,809.014038 578.633850,809.015747 582.589417,809.603821 
	C597.022705,809.354553 611.468079,809.378845 625.884216,808.741516 
	C633.171204,808.419373 639.281738,805.431885 642.277405,797.854187 
	C642.815247,796.493713 645.304932,795.312683 647.015747,795.116821 
	C652.604736,794.477112 658.343872,794.854919 663.852051,793.871521 
	C672.038025,792.409973 681.063232,791.901550 684.388306,781.724304 
	C684.793457,780.484314 687.168152,779.179749 688.671021,779.129395 
	C695.118408,778.913452 700.502625,776.646484 705.256042,772.326172 
	C709.380127,768.577881 713.298279,764.044006 718.199463,761.851379 
	C724.307495,759.118835 728.268677,755.391785 730.984985,749.466736 
	C731.872864,747.530029 734.766846,746.590271 736.521851,744.956604 
	C739.441895,742.238342 742.582214,739.619446 744.909790,736.432861 
	C748.781921,731.131897 751.408691,724.786438 755.814636,720.047424 
	C760.317810,715.203979 762.580261,710.122742 763.074158,703.746399 
	C763.404114,699.485046 764.688965,695.740417 767.913147,692.228271 
	C771.617432,688.193237 774.978516,683.187805 776.545959,678.015259 
	C778.431702,671.792236 778.906494,664.947571 778.888062,658.375122 
	C778.805969,629.084106 778.595032,599.787354 777.829834,570.508362 
	C777.607727,562.009460 776.451111,553.153320 767.256958,548.340698 
	C765.673462,547.511780 764.564880,544.915833 764.123718,542.938293 
	C763.119141,538.435364 763.203674,533.638916 761.824341,529.285278 
	C760.628113,525.509399 758.832764,521.084717 755.864624,518.898376 
	C750.981079,515.301147 748.702332,510.743469 747.314148,505.369781 
	C745.577087,498.645630 749.177734,488.573090 754.473633,486.947418 
	C760.285156,485.163483 762.991028,481.301270 765.004395,476.058929 
	C765.732788,474.162598 767.729370,471.991577 769.593689,471.431152 
	C776.081665,469.480713 778.241516,464.851440 779.121399,458.800140 
	C779.321350,457.424530 780.832092,455.387695 782.034668,455.150360 
	C788.951355,453.785339 792.751099,449.917023 794.022705,442.940582 
	C794.349121,441.149902 796.464233,438.664551 798.131836,438.322449 
	C804.162109,437.085297 806.229736,432.939362 808.204956,427.839020 
	C809.263550,425.105225 812.162720,423.049164 814.341431,420.793640 
	C816.708313,418.343201 820.007874,416.420502 821.454102,413.541077 
	C823.651367,409.166382 824.369385,404.073425 826.190002,399.473267 
	C826.962158,397.522308 828.624939,395.126953 830.419556,394.519867 
	C837.076050,392.268097 839.761780,387.805023 840.182800,381.059143 
	C840.307190,379.066223 841.890686,376.302979 843.597900,375.413635 
	C852.863098,370.587006 854.886230,361.934052 855.873352,352.889130 
	C856.307861,348.908203 857.717651,346.886292 861.329712,345.040070 
	C864.279724,343.532257 866.973145,340.473053 868.469238,337.452332 
	C870.104431,334.150787 869.881165,329.981934 871.108643,326.411346 
	C872.556702,322.198853 869.948364,316.308533 876.096619,313.957275 
	C880.750244,312.177612 883.169250,308.376404 884.109558,303.811890 
	C885.340393,297.837067 886.783264,291.758942 886.802307,285.721039 
	C886.823120,279.111206 889.781738,274.470398 893.629761,269.703735 
	C895.944519,266.836304 898.537048,263.383057 898.957458,259.942871 
	C900.440796,247.804581 901.666626,235.560226 901.704041,223.352173 
	C901.722046,217.463562 899.377319,211.365219 897.141541,205.744034 
	C895.672424,202.050476 892.961853,198.343475 887.079102,198.940735 
	C881.444702,194.476746 874.909302,193.226212 868.017700,194.184082 
	C862.999939,194.881531 858.077209,196.262756 852.613159,196.632599 
	C843.500244,195.536697 834.989868,196.835510 827.184082,202.155258 
	C821.895813,205.759308 816.311035,208.953629 810.708496,212.060165 
	C808.136536,213.486328 803.841736,213.468918 802.675842,215.472321 
	C798.218872,223.131348 790.644775,225.831482 783.665100,229.967499 
	C777.234985,233.777847 771.596069,239.153290 766.215820,244.455429 
	C756.303894,254.223358 743.549988,261.007721 736.037537,273.324554 
	C734.987549,275.046021 732.745056,276.042023 731.049500,277.367340 
	C729.747375,278.385193 727.976868,279.123505 727.202271,280.447021 
	C720.005859,292.743378 707.847717,301.379486 702.009033,314.698425 
	C701.379395,316.134644 699.477905,317.385834 697.890259,317.961517 
	C692.575378,319.888580 690.560608,324.123749 688.881653,329.018585 
	C688.156128,331.133698 686.505676,333.469879 684.615479,334.540527 
	C679.991089,337.159790 677.271423,340.748016 675.435913,345.728912 
	C673.995667,349.637421 671.350830,353.188782 668.828247,356.592773 
	C664.211548,362.822449 658.653931,368.409637 657.766541,376.764374 
	C657.584106,378.481964 656.053467,380.462219 654.579407,381.569550 
	C646.281494,387.803070 643.593445,396.496857 643.006409,406.936646 
	C641.943176,408.610962 640.879944,410.285278 638.959045,411.983063 
	C630.059021,411.990021 621.124634,412.471344 612.271606,411.829681 
	C606.780884,411.431702 600.200928,410.856964 596.224304,407.698975 
	C585.414062,399.114105 572.816345,398.729248 560.437805,398.229065 
	C545.374634,397.620361 530.221863,398.284760 515.151489,399.154816 
	C506.119415,399.676270 497.008575,400.917786 490.025970,408.145416 
	C488.380035,409.849121 485.254059,410.683411 482.727875,410.880859 
	C470.773193,411.815338 458.790405,412.390350 446.285431,412.688080 
	C438.272736,400.794830 430.260010,388.901550 422.947327,376.807831 
	C423.258423,375.277893 424.328766,373.328461 423.753906,372.288025 
	C420.669739,366.706024 417.197723,361.336761 413.815765,355.921448 
	C411.592468,352.361420 409.197754,348.905121 407.065308,345.292877 
	C405.670166,342.929596 405.255646,339.282318 403.274414,338.100952 
	C397.069794,334.401215 391.975830,330.361450 391.593903,322.474182 
	C391.567871,321.936646 390.837646,321.416473 390.401001,320.917999 
	C385.601135,315.438934 380.047211,310.443909 376.166199,304.378082 
	C370.457092,295.455109 360.009521,290.440277 356.587738,279.661987 
	C355.977203,277.738892 352.897400,276.571350 350.905823,275.126526 
	C349.853821,274.363312 348.256104,274.022003 347.646088,273.032990 
	C343.325073,266.027313 336.173340,261.978027 330.731873,256.391296 
	C325.172363,250.683395 319.411072,245.515289 313.166107,240.710312 
	C312.005157,239.817032 311.035675,238.660675 310.040283,237.568787 
	C304.923920,231.956345 298.991425,227.758057 291.558014,225.566727 
	C289.127869,224.850311 286.364136,223.003647 285.155334,220.876816 
	C282.633057,216.438965 279.104340,214.323059 274.425476,212.757812 
	C270.486389,211.440063 266.007294,209.509750 263.575287,206.425095 
	C259.733459,201.552307 255.057999,198.791397 249.422729,198.119827 
	C237.604507,196.711456 225.654221,196.389999 213.848114,194.906509 
	C197.538986,192.857193 180.544769,213.249191 181.943268,227.011551 
	C182.612808,233.600266 182.650452,240.252380 183.004089,246.874207 
	C183.479340,255.773346 185.762177,264.085144 189.889648,272.088501 
	C192.578903,277.303101 194.647751,283.047424 195.809265,288.794006 
	C197.874985,299.014191 200.110779,308.915253 207.923157,316.600769 
	C209.104248,317.762665 209.463593,319.822815 210.044159,321.521729 
	C213.291306,331.023987 215.103180,341.183685 223.485840,348.194489 
	C224.928940,349.401398 225.055145,352.090424 226.023300,353.974731 
	C229.113541,359.989349 231.455780,366.689087 235.764664,371.673981 
	C238.781555,375.164185 241.592331,378.400909 242.730774,382.740509 
	C244.107010,387.986481 246.591125,392.132751 251.333252,395.017670 
	C252.938751,395.994354 254.366165,397.775330 255.143341,399.515533 
	C258.960663,408.062866 263.367462,416.073212 271.162750,421.795868 
	C272.807190,423.003052 273.631866,425.277374 274.995605,426.926575 
	C277.880615,430.415527 280.908203,433.786346 283.806915,437.264282 
	C285.650208,439.475861 287.313080,441.837738 289.153412,444.051971 
	C291.840332,447.284821 294.580719,450.474976 297.361694,453.627411 
	C299.428864,455.970642 302.308929,457.897064 303.552155,460.596283 
	C305.404266,464.617462 307.129669,468.033020 311.309937,470.434204 
	C314.371429,472.192780 316.280365,475.895599 318.847961,478.593903 
	C321.400391,481.276276 323.793976,484.337830 326.872314,486.235107 
	C330.902802,488.719238 337.328766,499.842712 335.696686,504.160736 
	C333.330048,510.422150 331.858673,517.138489 326.021545,521.768860 
	C323.656036,523.645325 322.183929,527.146362 321.221741,530.197266 
	C318.642303,538.375610 317.351379,547.024963 311.020905,553.597290 
	C309.936584,554.723022 309.249634,556.467102 308.915833,558.039551 
	C307.407867,565.143066 305.738129,572.240845 304.789032,579.428101 
	C303.253387,591.056763 301.221039,602.756287 301.246857,614.421753 
	C301.282745,630.626465 302.475922,646.886902 304.220398,663.010254 
	C305.531281,675.126343 307.216278,687.542908 317.024445,696.662781 
	C317.796265,697.380432 318.015839,698.721558 318.420105,699.799927 
	C320.214172,704.585205 321.005402,710.119080 323.957550,714.021912 
	C330.600769,722.804260 338.276123,730.810425 345.603577,739.068420 
	C348.340027,742.152466 351.168976,745.171997 354.153473,748.013306 
	C357.139862,750.856506 361.029602,752.978027 363.335815,756.252319 
	C366.369171,760.559021 370.038696,763.342651 375.041138,763.713318 
	C378.575531,763.975220 379.818970,765.694641 380.879272,768.588867 
	C382.600647,773.287292 385.949310,776.213501 391.068726,777.051208 
	C394.004272,777.531494 397.136414,777.901123 399.712311,779.228455 
	C403.406708,781.132019 406.652832,783.895874 410.129456,786.234375 
	C413.485718,788.491943 416.637085,791.832275 420.329987,792.644714 
	C427.384857,794.196960 434.760620,794.290955 442.669678,794.995117 
	C443.114014,794.994263 443.558380,794.993469 444.070007,795.701599 
	C447.258484,804.072693 455.021393,806.607971 462.329102,807.711304 
	C473.742645,809.434570 485.433807,809.319214 497.942352,809.990540 
	C503.959930,809.988831 509.977539,809.987122 516.891907,809.995728 
	C519.933411,809.395264 522.974915,808.794739 526.946167,808.093933 
	C538.294006,808.105408 549.641785,808.116882 561.186829,808.876099 
	C564.457153,808.922302 567.727417,808.968506 571.914062,809.012268 
z"/>
<path fill="#A3A3A3" opacity="1.000000" stroke="none" 
	d="
M560.989624,808.128357 
	C549.641785,808.116882 538.294006,808.105408 526.051697,808.059753 
	C522.108521,807.798157 519.059875,807.570740 515.576599,807.240234 
	C511.092072,806.766113 507.042145,806.395020 502.705994,805.763672 
	C488.931671,802.420410 475.443573,799.337280 461.594482,796.136841 
	C456.148712,794.367188 451.063873,792.714783 445.752869,790.795288 
	C437.647919,786.993713 429.576447,783.829468 421.929474,779.849731 
	C404.636597,770.849854 388.560730,760.088196 373.998962,746.954712 
	C357.413330,731.995667 343.632111,714.948608 332.717407,695.528625 
	C321.416718,675.421814 315.123169,653.683289 311.872986,630.552429 
	C309.324707,607.359070 312.091217,585.137085 318.679596,563.291443 
	C325.141724,541.864502 335.774811,522.622375 349.482361,505.067383 
	C352.241272,501.534058 352.050781,499.450531 348.941528,496.363220 
	C343.291779,490.753387 337.971008,484.789917 332.781189,478.743744 
	C321.763031,465.907471 310.917145,452.923370 299.874451,439.686584 
	C294.813110,432.897583 289.786713,426.489105 284.958221,419.934814 
	C259.654205,385.586761 236.614258,349.808746 219.050980,310.843781 
	C212.178558,295.597015 206.612656,279.688782 201.494217,263.747040 
	C197.430756,251.091110 195.364487,237.914169 197.875534,224.449539 
	C200.636520,209.644653 211.755463,201.818451 226.512787,204.621796 
	C231.380157,205.546417 236.190521,206.771271 241.374771,207.961700 
	C247.294418,210.669067 253.012619,213.003387 258.411011,215.927979 
	C275.587097,225.233124 291.217682,236.764847 306.191132,249.280273 
	C333.988800,272.514740 358.885559,298.589844 382.198761,326.230988 
	C390.551300,336.134125 398.668213,346.236023 406.967285,356.575439 
	C412.110382,363.605225 417.178833,370.306763 422.247314,377.008301 
	C430.260010,388.901550 438.272736,400.794830 446.628845,413.235229 
	C449.590607,417.897339 452.209015,422.012299 454.916138,426.467102 
	C455.812744,428.178894 456.620636,429.550812 457.326965,430.750214 
	C467.233887,428.075531 476.618073,425.541992 486.427063,423.019531 
	C497.981720,421.572662 509.084534,419.194153 520.247620,418.865723 
	C538.417908,418.331085 556.661682,418.550171 574.807739,419.601807 
	C585.278687,420.208618 595.618835,423.073090 606.364746,425.076294 
	C611.607849,426.557617 616.512756,427.853302 621.398376,429.217621 
	C628.837158,431.294861 630.216858,430.544708 632.901062,422.662903 
	C635.350403,418.913483 637.583557,415.436523 639.816650,411.959595 
	C640.879944,410.285278 641.943176,408.610962 643.364502,406.409912 
	C652.659363,392.871338 660.936890,379.341278 670.672363,366.957367 
	C689.861938,342.547424 709.445374,318.417969 729.645447,294.840302 
	C748.169678,273.218628 768.991760,253.773148 791.009216,235.712845 
	C809.962585,220.165970 830.197632,206.546402 853.112122,197.339111 
	C858.077209,196.262756 862.999939,194.881531 868.017700,194.184082 
	C874.909302,193.226212 881.444702,194.476746 887.595520,199.327209 
	C890.458069,204.549149 894.262634,209.221100 894.827271,214.256393 
	C895.808411,223.005676 895.982239,232.209900 894.323853,240.804535 
	C891.893616,253.399628 887.550537,265.625641 883.762085,278.244690 
	C874.274536,297.747162 865.042114,317.011200 855.828552,336.284302 
	C854.843079,338.345612 853.968323,340.459839 852.784058,342.456146 
	C849.001709,348.234985 845.477417,354.107208 841.694336,360.174072 
	C840.609009,361.883392 839.782410,363.398071 838.666138,365.090393 
	C838.055847,365.647614 837.703735,366.005035 837.419067,366.409851 
	C824.753052,384.423462 812.184448,402.506531 799.391418,420.429474 
	C793.444824,428.760681 787.063660,436.781708 780.597290,445.111877 
	C778.539551,447.512054 776.763855,449.743683 774.688538,452.126221 
	C771.213074,456.162018 768.037231,460.046814 764.579712,464.096771 
	C762.552002,466.225037 760.805969,468.188141 758.755737,470.275604 
	C755.674072,473.616150 752.896606,476.832306 749.839111,480.231445 
	C743.401428,486.872437 737.243774,493.330444 731.846497,498.990936 
	C740.084839,512.540222 748.120911,525.466003 755.826721,538.585815 
	C758.574768,543.264526 760.522339,548.413452 762.849670,553.699341 
	C763.315063,555.361084 763.766113,556.671143 764.197388,558.356750 
	C765.496033,563.149231 766.814392,567.566223 768.109802,572.376465 
	C774.338013,596.020386 774.922241,619.599915 770.296875,643.042603 
	C767.752258,655.939392 762.906006,668.381958 758.817139,681.240356 
	C743.942078,714.111389 721.447327,740.270386 692.662598,761.180847 
	C685.573730,766.330505 678.153564,771.024109 670.603149,775.963135 
	C669.865417,776.304199 669.410400,776.609314 668.598267,776.966064 
	C661.500977,780.364990 654.760681,783.712341 647.652161,787.091614 
	C636.328796,790.896362 625.471008,794.991394 614.388000,798.341003 
	C605.394531,801.058899 596.130554,802.881531 586.564697,805.075562 
	C581.089600,805.753601 576.036316,806.457336 570.559753,807.120361 
	C567.087524,807.429260 564.038574,807.778809 560.989624,808.128357 
z"/>
<path fill="#F5F5F5" opacity="1.000000" stroke="none" 
	d="
M422.597321,376.908081 
	C417.178833,370.306763 412.110382,363.605225 407.000458,356.168091 
	C404.122070,350.706757 401.424561,345.889648 398.405792,341.283112 
	C395.822754,337.341492 392.936920,333.590942 390.063385,329.849213 
	C387.511627,326.526489 384.820862,323.308685 382.138306,320.088898 
	C380.196625,317.758331 378.179932,315.489746 376.175293,313.212372 
	C373.198883,309.830902 370.270813,306.402649 367.180206,303.128296 
	C366.085205,301.968201 363.707458,301.428986 363.388489,300.218231 
	C360.406097,288.898315 349.989746,283.329742 343.467407,274.810730 
	C337.440857,266.939178 328.252045,261.495605 320.497833,254.933258 
	C319.105438,253.754868 317.692017,252.489426 316.674683,251.000244 
	C313.394165,246.198242 309.482269,242.352249 303.684326,240.699173 
	C302.534882,240.371429 301.309052,239.335907 300.689972,238.288849 
	C297.643738,233.136642 293.080170,230.181335 287.579346,228.177475 
	C285.134644,227.286926 282.680176,225.902313 280.773621,224.150436 
	C274.362579,218.259491 267.512482,213.264633 258.993591,210.808044 
	C256.973999,210.225647 255.217590,208.765778 253.299240,207.789932 
	C248.773300,205.487595 244.406586,202.692490 239.643341,201.074295 
	C230.101334,197.832657 220.132385,197.230133 210.257401,199.171097 
	C206.851517,199.840530 202.669662,201.474655 200.782486,204.075790 
	C193.969910,213.465607 185.429245,222.446381 188.003784,235.716461 
	C188.600845,238.793991 189.103760,241.897888 189.878662,244.931229 
	C191.677841,251.974030 194.358383,258.879333 195.339401,266.024658 
	C197.198746,279.567200 200.549210,292.323792 209.385162,303.134583 
	C209.768677,303.603790 209.861481,304.357819 209.967743,304.999390 
	C211.698227,315.447113 214.647156,325.285858 222.370041,333.176758 
	C224.116882,334.961578 225.036636,337.746399 225.837402,340.231934 
	C228.533920,348.601929 230.484619,357.317169 238.809235,362.431946 
	C239.804993,363.043762 240.390961,364.489105 240.923447,365.658905 
	C243.026825,370.279816 244.617981,375.189423 247.176483,379.534149 
	C250.686920,385.495453 254.809769,391.108093 258.849487,396.741608 
	C261.676361,400.683777 264.783447,404.426575 267.805176,408.226776 
	C269.104156,409.860413 271.292847,411.232147 271.708954,413.038147 
	C272.922089,418.303253 276.167786,421.590088 280.258942,424.743500 
	C283.312531,427.097107 285.680023,430.392914 288.151733,433.432831 
	C290.129822,435.865570 291.689209,438.636292 293.637024,441.096588 
	C298.742157,447.544922 303.936584,453.923157 309.144745,460.288940 
	C310.474762,461.914581 311.998749,463.380585 313.415375,464.936554 
	C316.056793,467.837891 318.629456,470.804047 321.333344,473.645599 
	C324.235779,476.695801 327.340607,479.555603 330.199158,482.644714 
	C332.606659,485.246429 334.936340,487.949615 337.018036,490.813232 
	C338.465759,492.804718 339.113953,495.416718 340.687317,497.269104 
	C343.619904,500.721832 344.712677,503.505493 340.578369,507.048309 
	C338.723511,508.637787 338.056000,511.623779 336.878204,513.990234 
	C334.101166,519.569885 331.294617,525.135620 328.587524,530.749084 
	C325.871033,536.382202 322.926422,541.939270 320.708191,547.768005 
	C318.899780,552.519775 318.802948,558.013000 316.581116,562.501160 
	C308.360138,579.107422 305.448914,596.791443 305.091736,614.997131 
	C304.909698,624.274902 305.369415,633.594421 306.083435,642.853088 
	C306.938110,653.936584 308.609589,664.844055 313.851624,674.999329 
	C316.308075,679.757996 317.350494,685.228699 319.286163,690.279968 
	C320.760712,694.127869 322.332611,697.998047 324.395264,701.547974 
	C327.956055,707.676270 332.453491,713.307739 335.557007,719.638428 
	C337.767883,724.148193 340.221436,727.754211 344.545715,730.420288 
	C346.890442,731.865967 348.951996,734.300964 350.277069,736.756104 
	C352.755096,741.347473 356.113953,744.610718 360.773285,746.936157 
	C362.941010,748.018005 365.117523,749.870728 366.317383,751.938477 
	C368.763794,756.154663 371.787445,759.153564 376.487640,760.840881 
	C379.499176,761.921997 382.773071,763.560852 384.772552,765.927124 
	C390.402252,772.589478 397.341644,776.434204 405.755066,778.202637 
	C408.323120,778.742432 411.727264,779.552673 412.963745,781.420532 
	C417.536591,788.328491 424.166656,790.764771 431.752625,792.090210 
	C435.232178,792.698120 438.590088,794.001953 442.003174,794.990234 
	C434.760620,794.290955 427.384857,794.196960 420.329987,792.644714 
	C416.637085,791.832275 413.485718,788.491943 410.129456,786.234375 
	C406.652832,783.895874 403.406708,781.132019 399.712311,779.228455 
	C397.136414,777.901123 394.004272,777.531494 391.068726,777.051208 
	C385.949310,776.213501 382.600647,773.287292 380.879272,768.588867 
	C379.818970,765.694641 378.575531,763.975220 375.041138,763.713318 
	C370.038696,763.342651 366.369171,760.559021 363.335815,756.252319 
	C361.029602,752.978027 357.139862,750.856506 354.153473,748.013306 
	C351.168976,745.171997 348.340027,742.152466 345.603577,739.068420 
	C338.276123,730.810425 330.600769,722.804260 323.957550,714.021912 
	C321.005402,710.119080 320.214172,704.585205 318.420105,699.799927 
	C318.015839,698.721558 317.796265,697.380432 317.024445,696.662781 
	C307.216278,687.542908 305.531281,675.126343 304.220398,663.010254 
	C302.475922,646.886902 301.282745,630.626465 301.246857,614.421753 
	C301.221039,602.756287 303.253387,591.056763 304.789032,579.428101 
	C305.738129,572.240845 307.407867,565.143066 308.915833,558.039551 
	C309.249634,556.467102 309.936584,554.723022 311.020905,553.597290 
	C317.351379,547.024963 318.642303,538.375610 321.221741,530.197266 
	C322.183929,527.146362 323.656036,523.645325 326.021545,521.768860 
	C331.858673,517.138489 333.330048,510.422150 335.696686,504.160736 
	C337.328766,499.842712 330.902802,488.719238 326.872314,486.235107 
	C323.793976,484.337830 321.400391,481.276276 318.847961,478.593903 
	C316.280365,475.895599 314.371429,472.192780 311.309937,470.434204 
	C307.129669,468.033020 305.404266,464.617462 303.552155,460.596283 
	C302.308929,457.897064 299.428864,455.970642 297.361694,453.627411 
	C294.580719,450.474976 291.840332,447.284821 289.153412,444.051971 
	C287.313080,441.837738 285.650208,439.475861 283.806915,437.264282 
	C280.908203,433.786346 277.880615,430.415527 274.995605,426.926575 
	C273.631866,425.277374 272.807190,423.003052 271.162750,421.795868 
	C263.367462,416.073212 258.960663,408.062866 255.143341,399.515533 
	C254.366165,397.775330 252.938751,395.994354 251.333252,395.017670 
	C246.591125,392.132751 244.107010,387.986481 242.730774,382.740509 
	C241.592331,378.400909 238.781555,375.164185 235.764664,371.673981 
	C231.455780,366.689087 229.113541,359.989349 226.023300,353.974731 
	C225.055145,352.090424 224.928940,349.401398 223.485840,348.194489 
	C215.103180,341.183685 213.291306,331.023987 210.044159,321.521729 
	C209.463593,319.822815 209.104248,317.762665 207.923157,316.600769 
	C200.110779,308.915253 197.874985,299.014191 195.809265,288.794006 
	C194.647751,283.047424 192.578903,277.303101 189.889648,272.088501 
	C185.762177,264.085144 183.479340,255.773346 183.004089,246.874207 
	C182.650452,240.252380 182.612808,233.600266 181.943268,227.011551 
	C180.544769,213.249191 197.538986,192.857193 213.848114,194.906509 
	C225.654221,196.389999 237.604507,196.711456 249.422729,198.119827 
	C255.057999,198.791397 259.733459,201.552307 263.575287,206.425095 
	C266.007294,209.509750 270.486389,211.440063 274.425476,212.757812 
	C279.104340,214.323059 282.633057,216.438965 285.155334,220.876816 
	C286.364136,223.003647 289.127869,224.850311 291.558014,225.566727 
	C298.991425,227.758057 304.923920,231.956345 310.040283,237.568787 
	C311.035675,238.660675 312.005157,239.817032 313.166107,240.710312 
	C319.411072,245.515289 325.172363,250.683395 330.731873,256.391296 
	C336.173340,261.978027 343.325073,266.027313 347.646088,273.032990 
	C348.256104,274.022003 349.853821,274.363312 350.905823,275.126526 
	C352.897400,276.571350 355.977203,277.738892 356.587738,279.661987 
	C360.009521,290.440277 370.457092,295.455109 376.166199,304.378082 
	C380.047211,310.443909 385.601135,315.438934 390.401001,320.917999 
	C390.837646,321.416473 391.567871,321.936646 391.593903,322.474182 
	C391.975830,330.361450 397.069794,334.401215 403.274414,338.100952 
	C405.255646,339.282318 405.670166,342.929596 407.065308,345.292877 
	C409.197754,348.905121 411.592468,352.361420 413.815765,355.921448 
	C417.197723,361.336761 420.669739,366.706024 423.753906,372.288025 
	C424.328766,373.328461 423.258423,375.277893 422.597321,376.908081 
z"/>
<path fill="#F1F1F1" opacity="1.000000" stroke="none" 
	d="
M442.336426,794.992676 
	C438.590088,794.001953 435.232178,792.698120 431.752625,792.090210 
	C424.166656,790.764771 417.536591,788.328491 412.963745,781.420532 
	C411.727264,779.552673 408.323120,778.742432 405.755066,778.202637 
	C397.341644,776.434204 390.402252,772.589478 384.772552,765.927124 
	C382.773071,763.560852 379.499176,761.921997 376.487640,760.840881 
	C371.787445,759.153564 368.763794,756.154663 366.317383,751.938477 
	C365.117523,749.870728 362.941010,748.018005 360.773285,746.936157 
	C356.113953,744.610718 352.755096,741.347473 350.277069,736.756104 
	C348.951996,734.300964 346.890442,731.865967 344.545715,730.420288 
	C340.221436,727.754211 337.767883,724.148193 335.557007,719.638428 
	C332.453491,713.307739 327.956055,707.676270 324.395264,701.547974 
	C322.332611,697.998047 320.760712,694.127869 319.286163,690.279968 
	C317.350494,685.228699 316.308075,679.757996 313.851624,674.999329 
	C308.609589,664.844055 306.938110,653.936584 306.083435,642.853088 
	C305.369415,633.594421 304.909698,624.274902 305.091736,614.997131 
	C305.448914,596.791443 308.360138,579.107422 316.581116,562.501160 
	C318.802948,558.013000 318.899780,552.519775 320.708191,547.768005 
	C322.926422,541.939270 325.871033,536.382202 328.587524,530.749084 
	C331.294617,525.135620 334.101166,519.569885 336.878204,513.990234 
	C338.056000,511.623779 338.723511,508.637787 340.578369,507.048309 
	C344.712677,503.505493 343.619904,500.721832 340.687317,497.269104 
	C339.113953,495.416718 338.465759,492.804718 337.018036,490.813232 
	C334.936340,487.949615 332.606659,485.246429 330.199158,482.644714 
	C327.340607,479.555603 324.235779,476.695801 321.333344,473.645599 
	C318.629456,470.804047 316.056793,467.837891 313.415375,464.936554 
	C311.998749,463.380585 310.474762,461.914581 309.144745,460.288940 
	C303.936584,453.923157 298.742157,447.544922 293.637024,441.096588 
	C291.689209,438.636292 290.129822,435.865570 288.151733,433.432831 
	C285.680023,430.392914 283.312531,427.097107 280.258942,424.743500 
	C276.167786,421.590088 272.922089,418.303253 271.708954,413.038147 
	C271.292847,411.232147 269.104156,409.860413 267.805176,408.226776 
	C264.783447,404.426575 261.676361,400.683777 258.849487,396.741608 
	C254.809769,391.108093 250.686920,385.495453 247.176483,379.534149 
	C244.617981,375.189423 243.026825,370.279816 240.923447,365.658905 
	C240.390961,364.489105 239.804993,363.043762 238.809235,362.431946 
	C230.484619,357.317169 228.533920,348.601929 225.837402,340.231934 
	C225.036636,337.746399 224.116882,334.961578 222.370041,333.176758 
	C214.647156,325.285858 211.698227,315.447113 209.967743,304.999390 
	C209.861481,304.357819 209.768677,303.603790 209.385162,303.134583 
	C200.549210,292.323792 197.198746,279.567200 195.339401,266.024658 
	C194.358383,258.879333 191.677841,251.974030 189.878662,244.931229 
	C189.103760,241.897888 188.600845,238.793991 188.003784,235.716461 
	C185.429245,222.446381 193.969910,213.465607 200.782486,204.075790 
	C202.669662,201.474655 206.851517,199.840530 210.257401,199.171097 
	C220.132385,197.230133 230.101334,197.832657 239.643341,201.074295 
	C244.406586,202.692490 248.773300,205.487595 253.299240,207.789932 
	C255.217590,208.765778 256.973999,210.225647 258.993591,210.808044 
	C267.512482,213.264633 274.362579,218.259491 280.773621,224.150436 
	C282.680176,225.902313 285.134644,227.286926 287.579346,228.177475 
	C293.080170,230.181335 297.643738,233.136642 300.689972,238.288849 
	C301.309052,239.335907 302.534882,240.371429 303.684326,240.699173 
	C309.482269,242.352249 313.394165,246.198242 316.674683,251.000244 
	C317.692017,252.489426 319.105438,253.754868 320.497833,254.933258 
	C328.252045,261.495605 337.440857,266.939178 343.467407,274.810730 
	C349.989746,283.329742 360.406097,288.898315 363.388489,300.218231 
	C363.707458,301.428986 366.085205,301.968201 367.180206,303.128296 
	C370.270813,306.402649 373.198883,309.830902 376.175293,313.212372 
	C378.179932,315.489746 380.196625,317.758331 382.138306,320.088898 
	C384.820862,323.308685 387.511627,326.526489 390.063385,329.849213 
	C392.936920,333.590942 395.822754,337.341492 398.405792,341.283112 
	C401.424561,345.889648 404.122070,350.706757 406.925842,355.839844 
	C398.668213,346.236023 390.551300,336.134125 382.198761,326.230988 
	C358.885559,298.589844 333.988800,272.514740 306.191132,249.280273 
	C291.217682,236.764847 275.587097,225.233124 258.411011,215.927979 
	C253.012619,213.003387 247.294418,210.669067 241.316223,207.610535 
	C235.337173,200.760941 213.364639,200.510315 206.978806,204.717636 
	C198.657913,210.199890 193.366180,217.595169 193.996933,228.159454 
	C194.352127,234.108536 194.125885,240.151794 195.115814,245.990845 
	C197.043091,257.358643 198.498459,269.014679 202.290359,279.798462 
	C205.940872,290.180176 211.312408,299.957825 214.220810,310.749115 
	C215.452087,315.317505 217.564590,320.114716 220.643280,323.600983 
	C224.500320,327.968597 226.053513,332.891479 227.649857,338.124054 
	C228.607758,341.263916 230.173401,344.263000 231.776932,347.152771 
	C236.243179,355.201508 243.186569,361.763062 245.686783,371.051453 
	C246.328445,373.435333 248.619339,375.383362 250.183655,377.508759 
	C252.291245,380.372253 254.517670,383.152374 256.535309,386.077118 
	C260.744843,392.179199 264.861511,398.345459 268.994476,404.500061 
	C270.820404,407.219055 272.495209,410.044830 274.415649,412.693756 
	C276.629700,415.747650 278.483856,419.578003 281.502716,421.404144 
	C285.391235,423.756348 287.481812,426.861969 289.359009,430.626801 
	C291.605804,435.132874 294.438904,439.167755 300.000641,439.999847 
	C310.917145,452.923370 321.763031,465.907471 332.781189,478.743744 
	C337.971008,484.789917 343.291779,490.753387 348.941528,496.363220 
	C352.050781,499.450531 352.241272,501.534058 349.482361,505.067383 
	C335.774811,522.622375 325.141724,541.864502 318.679596,563.291443 
	C312.091217,585.137085 309.324707,607.359070 311.512177,630.650940 
	C311.080841,634.308350 310.584808,637.518677 311.088654,640.563538 
	C312.268555,647.694336 313.854401,654.762085 315.427277,661.821716 
	C316.096863,664.827026 317.110596,667.758789 318.028290,670.705200 
	C320.625519,679.044312 322.292175,687.864014 326.204315,695.536377 
	C328.862274,700.749023 333.037933,705.298645 335.484924,710.934875 
	C338.465363,717.799805 343.240356,723.338806 348.704102,728.673462 
	C354.277588,734.115295 358.072723,741.213867 364.957550,745.719177 
	C369.131500,748.450500 371.989899,753.117432 375.974609,756.229248 
	C382.982971,761.702332 390.286530,766.824036 397.705627,771.731384 
	C400.645172,773.675842 404.218292,774.666321 407.511658,776.070679 
	C410.994019,777.555725 414.626862,778.756653 417.943634,780.545837 
	C423.584900,783.589172 428.800385,787.530762 434.647003,790.042053 
	C437.959320,791.464844 442.171906,790.791626 445.979034,791.062378 
	C451.063873,792.714783 456.148712,794.367188 461.654327,796.461243 
	C465.918915,799.253113 469.498535,802.454651 473.669952,803.748779 
	C479.550293,805.572937 485.868805,805.984497 491.708984,807.296021 
	C488.466858,807.727234 485.460388,808.291382 482.574829,807.918884 
	C473.181152,806.706116 463.213745,806.612122 456.645416,798.074341 
	C453.148804,793.529236 448.523895,794.736816 444.002716,794.992676 
	C443.558380,794.993469 443.114014,794.994263 442.336426,794.992676 
z"/>
<path fill="#F5F5F5" opacity="1.000000" stroke="none" 
	d="
M884.022522,278.008911 
	C887.550537,265.625641 891.893616,253.399628 894.323853,240.804535 
	C895.982239,232.209900 895.808411,223.005676 894.827271,214.256393 
	C894.262634,209.221100 890.458069,204.549149 887.927002,199.421799 
	C892.961853,198.343475 895.672424,202.050476 897.141541,205.744034 
	C899.377319,211.365219 901.722046,217.463562 901.704041,223.352173 
	C901.666626,235.560226 900.440796,247.804581 898.957458,259.942871 
	C898.537048,263.383057 895.944519,266.836304 893.629761,269.703735 
	C889.781738,274.470398 886.823120,279.111206 886.802307,285.721039 
	C886.783264,291.758942 885.340393,297.837067 884.109558,303.811890 
	C883.169250,308.376404 880.750244,312.177612 876.096619,313.957275 
	C869.948364,316.308533 872.556702,322.198853 871.108643,326.411346 
	C869.881165,329.981934 870.104431,334.150787 868.469238,337.452332 
	C866.973145,340.473053 864.279724,343.532257 861.329712,345.040070 
	C857.717651,346.886292 856.307861,348.908203 855.873352,352.889130 
	C854.886230,361.934052 852.863098,370.587006 843.597900,375.413635 
	C841.890686,376.302979 840.307190,379.066223 840.182800,381.059143 
	C839.761780,387.805023 837.076050,392.268097 830.419556,394.519867 
	C828.624939,395.126953 826.962158,397.522308 826.190002,399.473267 
	C824.369385,404.073425 823.651367,409.166382 821.454102,413.541077 
	C820.007874,416.420502 816.708313,418.343201 814.341431,420.793640 
	C812.162720,423.049164 809.263550,425.105225 808.204956,427.839020 
	C806.229736,432.939362 804.162109,437.085297 798.131836,438.322449 
	C796.464233,438.664551 794.349121,441.149902 794.022705,442.940582 
	C792.751099,449.917023 788.951355,453.785339 782.034668,455.150360 
	C780.832092,455.387695 779.321350,457.424530 779.121399,458.800140 
	C778.241516,464.851440 776.081665,469.480713 769.593689,471.431152 
	C767.729370,471.991577 765.732788,474.162598 765.004395,476.058929 
	C762.991028,481.301270 760.285156,485.163483 754.473633,486.947418 
	C749.177734,488.573090 745.577087,498.645630 747.314148,505.369781 
	C748.702332,510.743469 750.981079,515.301147 755.864624,518.898376 
	C758.832764,521.084717 760.628113,525.509399 761.824341,529.285278 
	C763.203674,533.638916 763.119141,538.435364 764.123718,542.938293 
	C764.564880,544.915833 765.673462,547.511780 767.256958,548.340698 
	C776.451111,553.153320 777.607727,562.009460 777.829834,570.508362 
	C778.595032,599.787354 778.805969,629.084106 778.888062,658.375122 
	C778.906494,664.947571 778.431702,671.792236 776.545959,678.015259 
	C774.978516,683.187805 771.617432,688.193237 767.913147,692.228271 
	C764.688965,695.740417 763.404114,699.485046 763.074158,703.746399 
	C762.580261,710.122742 760.317810,715.203979 755.814636,720.047424 
	C751.408691,724.786438 748.781921,731.131897 744.909790,736.432861 
	C742.582214,739.619446 739.441895,742.238342 736.521851,744.956604 
	C734.766846,746.590271 731.872864,747.530029 730.984985,749.466736 
	C728.268677,755.391785 724.307495,759.118835 718.199463,761.851379 
	C713.298279,764.044006 709.380127,768.577881 705.256042,772.326172 
	C700.502625,776.646484 695.118408,778.913452 688.671021,779.129395 
	C687.168152,779.179749 684.793457,780.484314 684.388306,781.724304 
	C681.063232,791.901550 672.038025,792.409973 663.852051,793.871521 
	C658.343872,794.854919 652.604736,794.477112 647.015747,795.116821 
	C645.304932,795.312683 642.815247,796.493713 642.277405,797.854187 
	C639.281738,805.431885 633.171204,808.419373 625.884216,808.741516 
	C611.468079,809.378845 597.022705,809.354553 582.540039,809.027344 
	C583.999207,808.294861 585.507812,808.138916 587.387451,807.985107 
	C588.500916,807.985901 589.243469,807.984558 590.455444,807.989624 
	C602.351501,808.033997 613.711792,807.974365 624.792969,804.279175 
	C632.406311,801.740356 636.421631,793.351013 644.902161,792.480713 
	C644.952698,792.475525 644.972900,792.174866 645.339355,792.010376 
	C646.114319,792.008057 646.557190,792.007568 647.279297,792.296021 
	C653.908020,791.382263 660.577637,790.999939 666.495422,788.690918 
	C670.492737,787.131226 674.949219,784.287292 676.375427,779.002625 
	C677.494385,778.995361 678.240356,778.990356 679.379150,778.984375 
	C683.509460,777.823730 687.294312,776.795593 690.972961,775.472290 
	C696.002258,773.663269 699.515381,770.264465 701.097473,764.769653 
	C701.407410,764.279724 701.668396,764.092590 702.376648,763.987671 
	C707.014648,761.651001 711.888367,760.006653 715.393372,756.844971 
	C723.708374,749.344604 731.252136,740.997070 739.351257,733.246521 
	C743.835754,728.955017 746.623230,723.928894 747.980591,717.650513 
	C747.989319,716.880310 747.994629,716.440125 748.349854,715.964966 
	C751.975830,712.585632 755.909546,709.651733 758.329224,705.773254 
	C760.435120,702.397644 760.831116,697.955139 761.982910,693.653687 
	C761.982300,692.882690 761.981445,692.442139 762.263062,691.755859 
	C764.291443,687.904663 765.981812,684.270630 767.806030,680.705017 
	C768.776978,678.807068 770.092773,677.085266 771.058716,675.185242 
	C776.171448,665.128540 776.383240,654.052429 776.841553,643.234375 
	C777.467224,628.467407 777.388367,613.639893 776.850830,598.865967 
	C776.528564,590.008240 775.221436,581.109558 773.469849,572.407837 
	C772.321655,566.703796 770.486816,560.730713 764.217102,557.981262 
	C763.766113,556.671143 763.315063,555.361084 762.900879,553.237793 
	C762.614929,549.304688 762.944641,545.927429 761.836243,543.117432 
	C759.379822,536.889648 757.127869,530.189026 753.003113,525.144470 
	C750.084229,521.574707 747.766296,518.289978 746.361694,513.960510 
	C745.374817,510.918274 743.211426,508.277222 741.911987,505.308807 
	C741.223816,503.736877 740.601562,501.632111 741.091858,500.144379 
	C742.472656,495.954651 744.345276,491.912567 746.241638,487.915497 
	C746.852783,486.627319 747.938293,485.045074 749.150940,484.647736 
	C755.826233,482.460510 758.300598,476.204315 762.715393,471.939026 
	C769.496399,465.387634 774.369324,457.264282 781.061157,451.209320 
	C788.881653,444.133087 793.718201,434.914490 801.384766,427.837708 
	C807.872864,421.848785 812.919006,414.241425 818.271912,407.101868 
	C821.104614,403.323700 824.851501,399.590393 823.029297,393.679077 
	C823.704773,392.572632 824.353577,391.786926 825.261719,390.894928 
	C826.014832,390.526428 826.508606,390.264221 827.356140,389.996735 
	C828.474060,389.328796 829.238281,388.666107 830.329590,387.957550 
	C831.438599,386.941925 832.220520,385.972168 833.346741,384.948914 
	C834.128174,383.930939 834.565308,382.966461 835.003906,381.752686 
	C835.005310,381.503418 835.007324,381.004883 835.327271,380.961823 
	C836.098145,380.279175 836.549072,379.639557 837.147949,378.659485 
	C838.532227,374.547241 839.768555,370.775452 841.348999,366.965118 
	C843.462891,364.952271 845.232666,362.977966 847.290527,360.862427 
	C848.387390,359.482025 849.196167,358.242828 850.325195,356.961212 
	C851.096985,356.279175 851.548462,355.639587 852.047729,354.605408 
	C852.781616,346.412628 856.457275,340.362061 862.132812,335.002533 
	C864.601196,332.671600 865.810791,328.874573 867.223206,325.585052 
	C870.555603,317.823853 870.822449,308.890320 877.086670,302.177216 
	C879.662537,299.416748 881.418335,295.470520 882.408569,291.759796 
	C883.586182,287.346863 883.539001,282.607086 884.022522,278.008911 
z"/>
<path fill="#F1F1F1" opacity="1.000000" stroke="none" 
	d="
M852.862671,196.985855 
	C830.197632,206.546402 809.962585,220.165970 791.009216,235.712845 
	C768.991760,253.773148 748.169678,273.218628 729.645447,294.840302 
	C709.445374,318.417969 689.861938,342.547424 670.672363,366.957367 
	C660.936890,379.341278 652.659363,392.871338 643.444580,406.088379 
	C643.593445,396.496857 646.281494,387.803070 654.579407,381.569550 
	C656.053467,380.462219 657.584106,378.481964 657.766541,376.764374 
	C658.653931,368.409637 664.211548,362.822449 668.828247,356.592773 
	C671.350830,353.188782 673.995667,349.637421 675.435913,345.728912 
	C677.271423,340.748016 679.991089,337.159790 684.615479,334.540527 
	C686.505676,333.469879 688.156128,331.133698 688.881653,329.018585 
	C690.560608,324.123749 692.575378,319.888580 697.890259,317.961517 
	C699.477905,317.385834 701.379395,316.134644 702.009033,314.698425 
	C707.847717,301.379486 720.005859,292.743378 727.202271,280.447021 
	C727.976868,279.123505 729.747375,278.385193 731.049500,277.367340 
	C732.745056,276.042023 734.987549,275.046021 736.037537,273.324554 
	C743.549988,261.007721 756.303894,254.223358 766.215820,244.455429 
	C771.596069,239.153290 777.234985,233.777847 783.665100,229.967499 
	C790.644775,225.831482 798.218872,223.131348 802.675842,215.472321 
	C803.841736,213.468918 808.136536,213.486328 810.708496,212.060165 
	C816.311035,208.953629 821.895813,205.759308 827.184082,202.155258 
	C834.989868,196.835510 843.500244,195.536697 852.862671,196.985855 
z"/>
<path fill="#F1F1F1" opacity="1.000000" stroke="none" 
	d="
M454.827393,426.127258 
	C452.209015,422.012299 449.590607,417.897339 446.894958,413.437927 
	C458.790405,412.390350 470.773193,411.815338 482.727875,410.880859 
	C485.254059,410.683411 488.380035,409.849121 490.025970,408.145416 
	C497.008575,400.917786 506.119415,399.676270 515.151489,399.154816 
	C530.221863,398.284760 545.374634,397.620361 560.437805,398.229065 
	C572.816345,398.729248 585.414062,399.114105 596.224304,407.698975 
	C600.200928,410.856964 606.780884,411.431702 612.271606,411.829681 
	C621.124634,412.471344 630.059021,411.990021 639.387817,411.971313 
	C637.583557,415.436523 635.350403,418.913483 632.494690,422.682343 
	C629.746155,422.744629 627.556946,422.764130 625.505188,422.242554 
	C616.363892,419.918823 607.335449,417.102570 598.127808,415.100983 
	C585.880798,412.438721 573.581726,409.732239 561.161438,408.239441 
	C550.840576,406.998901 540.166016,406.263611 529.909790,407.490784 
	C514.386780,409.348175 499.067078,412.986664 483.706879,416.095093 
	C473.653778,418.129547 463.498077,420.038116 454.827393,426.127258 
z"/>
<path fill="#F5F5F5" opacity="1.000000" stroke="none" 
	d="
M444.036377,795.347168 
	C448.523895,794.736816 453.148804,793.529236 456.645416,798.074341 
	C463.213745,806.612122 473.181152,806.706116 482.574829,807.918884 
	C485.460388,808.291382 488.466858,807.727234 492.074158,807.332764 
	C494.153290,807.374390 495.576172,807.675232 497.000000,808.310669 
	C497.003052,809.091125 497.005188,809.537048 497.007324,809.982910 
	C485.433807,809.319214 473.742645,809.434570 462.329102,807.711304 
	C455.021393,806.607971 447.258484,804.072693 444.036377,795.347168 
z"/>
<path fill="#F1F1F1" opacity="1.000000" stroke="none" 
	d="
M497.474854,809.986694 
	C497.005188,809.537048 497.003052,809.091125 497.246826,808.039551 
	C499.325928,806.963867 501.159058,806.493896 502.992188,806.023865 
	C507.042145,806.395020 511.092072,806.766113 515.574585,807.567871 
	C516.003113,808.660706 515.999146,809.323059 515.995117,809.985352 
	C509.977539,809.987122 503.959930,809.988831 497.474854,809.986694 
z"/>
<path fill="#EDEDED" opacity="1.000000" stroke="none" 
	d="
M587.016357,807.982910 
	C585.507812,808.138916 583.999207,808.294861 582.242188,808.734131 
	C578.633850,809.015747 575.273987,809.014038 571.455688,808.703979 
	C570.992493,807.984192 570.987732,807.572693 570.983032,807.161133 
	C576.036316,806.457336 581.089600,805.753601 586.568726,805.434814 
	C587.001892,806.540894 587.009094,807.261902 587.016357,807.982910 
z"/>
<path fill="#F5F5F5" opacity="1.000000" stroke="none" 
	d="
M570.559753,807.120422 
	C570.987732,807.572693 570.992493,807.984192 570.997498,808.705200 
	C567.727417,808.968506 564.457153,808.922302 561.088257,808.502197 
	C564.038574,807.778809 567.087524,807.429260 570.559753,807.120422 
z"/>
<path fill="#F5F5F5" opacity="1.000000" stroke="none" 
	d="
M516.443481,809.990540 
	C515.999146,809.323059 516.003113,808.660706 516.009155,807.670837 
	C519.059875,807.570740 522.108521,807.798157 525.586792,808.109924 
	C522.974915,808.794739 519.933411,809.395264 516.443481,809.990540 
z"/>
<path fill="#E4E4E4" opacity="1.000000" stroke="none" 
	d="
M587.387390,807.985107 
	C587.009094,807.261902 587.001892,806.540894 586.990601,805.460571 
	C596.130554,802.881531 605.394531,801.058899 614.388000,798.341003 
	C625.471008,794.991394 636.328796,790.896362 647.908813,787.360962 
	C657.272522,787.729309 664.058289,784.126953 668.955322,776.914429 
	C669.410400,776.609314 669.865417,776.304199 671.016724,775.989563 
	C679.941589,774.727417 686.974426,770.882751 693.439758,765.864197 
	C696.804810,763.252075 700.153870,760.608398 703.370728,757.818237 
	C711.276306,750.961182 719.212891,744.132141 726.900757,737.035950 
	C729.791504,734.367737 732.138550,731.075500 734.539246,727.919983 
	C737.836609,723.585876 741.054993,719.182861 744.107910,714.674438 
	C746.609924,710.979553 748.863464,707.112915 751.151306,703.277161 
	C755.259705,696.388977 759.181274,689.420593 759.097534,681.029297 
	C762.906006,668.381958 767.752258,655.939392 770.296875,643.042603 
	C774.922241,619.599915 774.338013,596.020386 768.464233,572.433960 
	C769.721130,573.394043 771.139465,574.593567 771.390564,576.001404 
	C772.752075,583.632935 774.717224,591.304260 774.817810,598.983521 
	C775.050537,616.749207 774.519775,634.533813 773.920715,652.297913 
	C773.621094,661.182251 770.917419,669.367310 765.811951,676.944214 
	C762.931641,681.218933 760.591003,686.313721 761.980652,692.001587 
	C761.981445,692.442139 761.982300,692.882690 761.631042,693.715515 
	C760.504395,695.295837 759.699951,696.465637 758.960388,697.675110 
	C755.912048,702.660522 752.875366,707.653198 749.853760,712.654907 
	C749.195007,713.745239 748.615784,714.883667 748.000000,716.000000 
	C747.994629,716.440125 747.989319,716.880310 747.638123,717.708252 
	C746.814087,718.522827 746.122314,718.856995 745.890564,719.390808 
	C743.447021,725.019531 738.756592,728.717590 734.895813,733.198120 
	C729.715515,739.209961 725.628357,746.013916 718.079163,749.534485 
	C717.440002,749.832458 717.272095,751.015442 716.668152,751.534790 
	C712.718079,754.931641 708.705383,758.255493 704.719727,761.611084 
	C703.796631,762.388306 702.899353,763.196350 701.990234,763.990234 
	C701.668396,764.092590 701.407410,764.279724 700.753479,764.806702 
	C694.414062,770.378967 688.062317,774.905396 680.303406,777.153442 
	C679.735168,777.318054 679.419434,778.354370 678.986328,778.985352 
	C678.240356,778.990356 677.494385,778.995361 675.993103,779.000122 
	C673.045349,780.280151 670.822571,781.511536 668.667114,782.851379 
	C664.933044,785.172424 661.443359,788.019348 657.466980,789.776062 
	C654.272827,791.187195 650.510315,791.311707 647.000000,792.007141 
	C646.557190,792.007568 646.114319,792.008057 644.919128,792.005554 
	C638.567932,794.052795 632.925903,795.993835 627.383850,798.187439 
	C622.854309,799.980164 618.609253,802.830994 613.940674,803.850464 
	C607.558960,805.244080 600.883545,805.253357 594.361084,806.071594 
	C592.846619,806.261597 591.441406,807.322815 589.985962,807.983154 
	C589.243469,807.984558 588.500916,807.985901 587.387390,807.985107 
z"/>
<path fill="#E4E4E4" opacity="1.000000" stroke="none" 
	d="
M299.874451,439.686584 
	C294.438904,439.167755 291.605804,435.132874 289.359009,430.626801 
	C287.481812,426.861969 285.391235,423.756348 281.502716,421.404144 
	C278.483856,419.578003 276.629700,415.747650 274.415649,412.693756 
	C272.495209,410.044830 270.820404,407.219055 268.994476,404.500061 
	C264.861511,398.345459 260.744843,392.179199 256.535309,386.077118 
	C254.517670,383.152374 252.291245,380.372253 250.183655,377.508759 
	C248.619339,375.383362 246.328445,373.435333 245.686783,371.051453 
	C243.186569,361.763062 236.243179,355.201508 231.776932,347.152771 
	C230.173401,344.263000 228.607758,341.263916 227.649857,338.124054 
	C226.053513,332.891479 224.500320,327.968597 220.643280,323.600983 
	C217.564590,320.114716 215.452087,315.317505 214.220810,310.749115 
	C211.312408,299.957825 205.940872,290.180176 202.290359,279.798462 
	C198.498459,269.014679 197.043091,257.358643 195.115814,245.990845 
	C194.125885,240.151794 194.352127,234.108536 193.996933,228.159454 
	C193.366180,217.595169 198.657913,210.199890 206.978806,204.717636 
	C213.364639,200.510315 235.337173,200.760941 240.968384,207.507645 
	C236.190521,206.771271 231.380157,205.546417 226.512787,204.621796 
	C211.755463,201.818451 200.636520,209.644653 197.875534,224.449539 
	C195.364487,237.914169 197.430756,251.091110 201.494217,263.747040 
	C206.612656,279.688782 212.178558,295.597015 219.050980,310.843781 
	C236.614258,349.808746 259.654205,385.586761 284.958221,419.934814 
	C289.786713,426.489105 294.813110,432.897583 299.874451,439.686584 
z"/>
<path fill="#E4E4E4" opacity="1.000000" stroke="none" 
	d="
M445.752869,790.795288 
	C442.171906,790.791626 437.959320,791.464844 434.647003,790.042053 
	C428.800385,787.530762 423.584900,783.589172 417.943634,780.545837 
	C414.626862,778.756653 410.994019,777.555725 407.511658,776.070679 
	C404.218292,774.666321 400.645172,773.675842 397.705627,771.731384 
	C390.286530,766.824036 382.982971,761.702332 375.974609,756.229248 
	C371.989899,753.117432 369.131500,748.450500 364.957550,745.719177 
	C358.072723,741.213867 354.277588,734.115295 348.704102,728.673462 
	C343.240356,723.338806 338.465363,717.799805 335.484924,710.934875 
	C333.037933,705.298645 328.862274,700.749023 326.204315,695.536377 
	C322.292175,687.864014 320.625519,679.044312 318.028290,670.705200 
	C317.110596,667.758789 316.096863,664.827026 315.427277,661.821716 
	C313.854401,654.762085 312.268555,647.694336 311.088654,640.563538 
	C310.584808,637.518677 311.080841,634.308350 311.483337,631.074707 
	C315.123169,653.683289 321.416718,675.421814 332.717407,695.528625 
	C343.632111,714.948608 357.413330,731.995667 373.998962,746.954712 
	C388.560730,760.088196 404.636597,770.849854 421.929474,779.849731 
	C429.576447,783.829468 437.647919,786.993713 445.752869,790.795288 
z"/>
<path fill="#E4E4E4" opacity="1.000000" stroke="none" 
	d="
M454.916138,426.467102 
	C463.498077,420.038116 473.653778,418.129547 483.706879,416.095093 
	C499.067078,412.986664 514.386780,409.348175 529.909790,407.490784 
	C540.166016,406.263611 550.840576,406.998901 561.161438,408.239441 
	C573.581726,409.732239 585.880798,412.438721 598.127808,415.100983 
	C607.335449,417.102570 616.363892,419.918823 625.505188,422.242554 
	C627.556946,422.764130 629.746155,422.744629 632.278503,422.954834 
	C630.216858,430.544708 628.837158,431.294861 621.398376,429.217621 
	C616.512756,427.853302 611.607849,426.557617 606.295776,424.730042 
	C604.506226,423.420593 603.219482,422.369720 601.745483,421.841339 
	C586.879089,416.511871 571.571289,412.841705 555.805908,412.141632 
	C533.187256,411.137268 510.730103,412.454254 489.194885,420.480713 
	C487.984741,420.931732 487.059906,422.148285 486.002258,423.008484 
	C476.618073,425.541992 467.233887,428.075531 457.326965,430.750214 
	C456.620636,429.550812 455.812744,428.178894 454.916138,426.467102 
z"/>
<path fill="#EDEDED" opacity="1.000000" stroke="none" 
	d="
M823.002686,393.999756 
	C824.851501,399.590393 821.104614,403.323700 818.271912,407.101868 
	C812.919006,414.241425 807.872864,421.848785 801.384766,427.837708 
	C793.718201,434.914490 788.881653,444.133087 781.061157,451.209320 
	C774.369324,457.264282 769.496399,465.387634 762.715393,471.939026 
	C758.300598,476.204315 755.826233,482.460510 749.150940,484.647736 
	C747.938293,485.045074 746.852783,486.627319 746.241638,487.915497 
	C744.345276,491.912567 742.472656,495.954651 741.091858,500.144379 
	C740.601562,501.632111 741.223816,503.736877 741.911987,505.308807 
	C743.211426,508.277222 745.374817,510.918274 746.361694,513.960510 
	C747.766296,518.289978 750.084229,521.574707 753.003113,525.144470 
	C757.127869,530.189026 759.379822,536.889648 761.836243,543.117432 
	C762.944641,545.927429 762.614929,549.304688 762.886475,552.886169 
	C760.522339,548.413452 758.574768,543.264526 755.826721,538.585815 
	C748.120911,525.466003 740.084839,512.540222 731.846497,498.990936 
	C737.243774,493.330444 743.401428,486.872437 750.194580,480.212372 
	C755.434143,478.277313 758.408813,475.184082 759.059875,470.151215 
	C760.805969,468.188141 762.552002,466.225037 764.960815,464.116486 
	C771.424988,462.064606 773.405823,457.175476 774.988159,451.975281 
	C776.763855,449.743683 778.539551,447.512054 780.954041,445.102234 
	C790.389099,434.954712 799.429260,425.187042 807.894104,414.943848 
	C813.365906,408.322479 817.995605,401.005188 823.002686,393.999756 
z"/>
<path fill="#D7D7D7" opacity="1.000000" stroke="none" 
	d="
M486.427063,423.019592 
	C487.059906,422.148285 487.984741,420.931732 489.194885,420.480713 
	C510.730103,412.454254 533.187256,411.137268 555.805908,412.141632 
	C571.571289,412.841705 586.879089,416.511871 601.745483,421.841339 
	C603.219482,422.369720 604.506226,423.420593 605.948853,424.575195 
	C595.618835,423.073090 585.278687,420.208618 574.807739,419.601807 
	C556.661682,418.550171 538.417908,418.331085 520.247620,418.865723 
	C509.084534,419.194153 497.981720,421.572662 486.427063,423.019592 
z"/>
<path fill="#D7D7D7" opacity="1.000000" stroke="none" 
	d="
M758.817078,681.240356 
	C759.181274,689.420593 755.259705,696.388977 751.151306,703.277161 
	C748.863464,707.112915 746.609924,710.979553 744.107910,714.674438 
	C741.054993,719.182861 737.836609,723.585876 734.539246,727.919983 
	C732.138550,731.075500 729.791504,734.367737 726.900757,737.035950 
	C719.212891,744.132141 711.276306,750.961182 703.370728,757.818237 
	C700.153870,760.608398 696.804810,763.252075 693.439758,765.864197 
	C686.974426,770.882751 679.941589,774.727417 671.299316,775.953735 
	C678.153564,771.024109 685.573730,766.330505 692.662598,761.180847 
	C721.447327,740.270386 743.942078,714.111389 758.817078,681.240356 
z"/>
<path fill="#EDEDED" opacity="1.000000" stroke="none" 
	d="
M850.004883,357.003662 
	C849.196167,358.242828 848.387390,359.482025 846.939331,360.897278 
	C844.534912,363.050110 842.769897,365.026886 841.004883,367.003662 
	C839.768555,370.775452 838.532227,374.547241 836.827026,378.701080 
	C835.907837,379.723724 835.457581,380.364288 835.007324,381.004883 
	C835.007324,381.004883 835.005310,381.503418 834.714111,381.893005 
	C833.949402,383.189209 833.475891,384.095825 833.002441,385.002441 
	C832.220520,385.972168 831.438599,386.941925 830.008057,387.982178 
	C828.573730,388.702484 827.788086,389.352234 827.002441,390.001984 
	C826.508606,390.264221 826.014832,390.526428 825.294373,390.542145 
	C826.805237,387.937988 828.573120,385.602020 830.274048,383.218262 
	C834.256775,377.636414 839.190125,372.497314 838.955811,364.912750 
	C839.782410,363.398071 840.609009,361.883392 842.045288,360.149323 
	C849.642761,356.243347 851.306030,349.374664 853.042175,342.549530 
	C853.968323,340.459839 854.843079,338.345612 855.828552,336.284302 
	C865.042114,317.011200 874.274536,297.747162 883.762085,278.244690 
	C883.539001,282.607086 883.586182,287.346863 882.408569,291.759796 
	C881.418335,295.470520 879.662537,299.416748 877.086670,302.177216 
	C870.822449,308.890320 870.555603,317.823853 867.223206,325.585052 
	C865.810791,328.874573 864.601196,332.671600 862.132812,335.002533 
	C856.457275,340.362061 852.781616,346.412628 851.726929,354.646942 
	C850.907166,355.723267 850.455994,356.363464 850.004883,357.003662 
z"/>
<path fill="#EDEDED" opacity="1.000000" stroke="none" 
	d="
M762.263062,691.755859 
	C760.591003,686.313721 762.931641,681.218933 765.811951,676.944214 
	C770.917419,669.367310 773.621094,661.182251 773.920715,652.297913 
	C774.519775,634.533813 775.050537,616.749207 774.817810,598.983521 
	C774.717224,591.304260 772.752075,583.632935 771.390564,576.001404 
	C771.139465,574.593567 769.721130,573.394043 768.487183,572.040771 
	C766.814392,567.566223 765.496033,563.149231 764.197388,558.356750 
	C770.486816,560.730713 772.321655,566.703796 773.469849,572.407837 
	C775.221436,581.109558 776.528564,590.008240 776.850830,598.865967 
	C777.388367,613.639893 777.467224,628.467407 776.841553,643.234375 
	C776.383240,654.052429 776.171448,665.128540 771.058716,675.185242 
	C770.092773,677.085266 768.776978,678.807068 767.806030,680.705017 
	C765.981812,684.270630 764.291443,687.904663 762.263062,691.755859 
z"/>
<path fill="#E4E4E4" opacity="1.000000" stroke="none" 
	d="
M838.666138,365.090393 
	C839.190125,372.497314 834.256775,377.636414 830.274048,383.218262 
	C828.573120,385.602020 826.805237,387.937988 825.035095,390.648438 
	C824.353577,391.786926 823.704773,392.572632 823.029297,393.679047 
	C817.995605,401.005188 813.365906,408.322479 807.894104,414.943848 
	C799.429260,425.187042 790.389099,434.954712 781.236206,444.933685 
	C787.063660,436.781708 793.444824,428.760681 799.391418,420.429474 
	C812.184448,402.506531 824.753052,384.423462 837.419067,366.409851 
	C837.703735,366.005035 838.055847,365.647614 838.666138,365.090393 
z"/>
<path fill="#E4E4E4" opacity="1.000000" stroke="none" 
	d="
M502.705994,805.763672 
	C501.159058,806.493896 499.325928,806.963867 497.245941,807.704956 
	C495.576172,807.675232 494.153290,807.374390 492.365173,807.036743 
	C485.868805,805.984497 479.550293,805.572937 473.669952,803.748779 
	C469.498535,802.454651 465.918915,799.253113 462.015289,796.578491 
	C475.443573,799.337280 488.931671,802.420410 502.705994,805.763672 
z"/>
<path fill="#D7D7D7" opacity="1.000000" stroke="none" 
	d="
M668.598267,776.966064 
	C664.058289,784.126953 657.272522,787.729309 648.276978,787.328979 
	C654.760681,783.712341 661.500977,780.364990 668.598267,776.966064 
z"/>
<path fill="#E4E4E4" opacity="1.000000" stroke="none" 
	d="
M852.784058,342.456146 
	C851.306030,349.374664 849.642761,356.243347 842.304077,359.954681 
	C845.477417,354.107208 849.001709,348.234985 852.784058,342.456146 
z"/>
<path fill="#E4E4E4" opacity="1.000000" stroke="none" 
	d="
M774.688538,452.126221 
	C773.405823,457.175476 771.424988,462.064606 765.242432,463.951324 
	C768.037231,460.046814 771.213074,456.162018 774.688538,452.126221 
z"/>
<path fill="#E4E4E4" opacity="1.000000" stroke="none" 
	d="
M758.755737,470.275604 
	C758.408813,475.184082 755.434143,478.277313 750.474609,480.029419 
	C752.896606,476.832306 755.674072,473.616150 758.755737,470.275604 
z"/>
<path fill="#EDEDED" opacity="1.000000" stroke="none" 
	d="
M702.376648,763.987671 
	C702.899353,763.196350 703.796631,762.388306 704.719727,761.611084 
	C708.705383,758.255493 712.718079,754.931641 716.668152,751.534790 
	C717.272095,751.015442 717.440002,749.832458 718.079163,749.534485 
	C725.628357,746.013916 729.715515,739.209961 734.895813,733.198120 
	C738.756592,728.717590 743.447021,725.019531 745.890564,719.390808 
	C746.122314,718.856995 746.814087,718.522827 747.634766,718.038330 
	C746.623230,723.928894 743.835754,728.955017 739.351257,733.246521 
	C731.252136,740.997070 723.708374,749.344604 715.393372,756.844971 
	C711.888367,760.006653 707.014648,761.651001 702.376648,763.987671 
z"/>
<path fill="#EDEDED" opacity="1.000000" stroke="none" 
	d="
M590.455444,807.989624 
	C591.441406,807.322815 592.846619,806.261597 594.361084,806.071594 
	C600.883545,805.253357 607.558960,805.244080 613.940674,803.850464 
	C618.609253,802.830994 622.854309,799.980164 627.383850,798.187439 
	C632.925903,795.993835 638.567932,794.052795 644.586975,792.007385 
	C644.972900,792.174866 644.952698,792.475525 644.902161,792.480713 
	C636.421631,793.351013 632.406311,801.740356 624.792969,804.279175 
	C613.711792,807.974365 602.351501,808.033997 590.455444,807.989624 
z"/>
<path fill="#EDEDED" opacity="1.000000" stroke="none" 
	d="
M647.279297,792.296021 
	C650.510315,791.311707 654.272827,791.187195 657.466980,789.776062 
	C661.443359,788.019348 664.933044,785.172424 668.667114,782.851379 
	C670.822571,781.511536 673.045349,780.280151 675.620117,779.002441 
	C674.949219,784.287292 670.492737,787.131226 666.495422,788.690918 
	C660.577637,790.999939 653.908020,791.382263 647.279297,792.296021 
z"/>
<path fill="#EDEDED" opacity="1.000000" stroke="none" 
	d="
M679.379150,778.984375 
	C679.419434,778.354370 679.735168,777.318054 680.303406,777.153442 
	C688.062317,774.905396 694.414062,770.378967 700.643799,765.024780 
	C699.515381,770.264465 696.002258,773.663269 690.972961,775.472290 
	C687.294312,776.795593 683.509460,777.823730 679.379150,778.984375 
z"/>
<path fill="#EDEDED" opacity="1.000000" stroke="none" 
	d="
M748.349854,715.964966 
	C748.615784,714.883667 749.195007,713.745239 749.853760,712.654907 
	C752.875366,707.653198 755.912048,702.660522 758.960388,697.675110 
	C759.699951,696.465637 760.504395,695.295837 761.630859,694.045959 
	C760.831116,697.955139 760.435120,702.397644 758.329224,705.773254 
	C755.909546,709.651733 751.975830,712.585632 748.349854,715.964966 
z"/>
<path fill="#F1F1F1" opacity="1.000000" stroke="none" 
	d="
M841.348999,366.965118 
	C842.769897,365.026886 844.534912,363.050110 846.651184,361.038483 
	C845.232666,362.977966 843.462891,364.952271 841.348999,366.965118 
z"/>
<path fill="#F1F1F1" opacity="1.000000" stroke="none" 
	d="
M827.356140,389.996735 
	C827.788086,389.352234 828.573730,388.702484 829.680908,388.028076 
	C829.238281,388.666107 828.474060,389.328796 827.356140,389.996735 
z"/>
<path fill="#F1F1F1" opacity="1.000000" stroke="none" 
	d="
M833.346741,384.948914 
	C833.475891,384.095825 833.949402,383.189209 834.712646,382.142273 
	C834.565308,382.966461 834.128174,383.930939 833.346741,384.948914 
z"/>
<path fill="#F1F1F1" opacity="1.000000" stroke="none" 
	d="
M850.325195,356.961212 
	C850.455994,356.363464 850.907166,355.723267 851.679138,355.041534 
	C851.548462,355.639587 851.096985,356.279175 850.325195,356.961212 
z"/>
<path fill="#F1F1F1" opacity="1.000000" stroke="none" 
	d="
M835.327271,380.961792 
	C835.457581,380.364288 835.907837,379.723724 836.679016,379.041565 
	C836.549072,379.639557 836.098145,380.279175 835.327271,380.961792 
z"/>
</svg>